<?xml version="1.0" encoding="UTF-8"?>
<svg id="Layer_1" data-name="Layer 1" xmlns="http://www.w3.org/2000/svg" viewBox="0 0 623.62 131.37">
  <defs>
    <style>
      .cls-1 {
        fill: #f2ede3;
      }
    </style>
  </defs>
  <path class="cls-1" d="M243.23,22.26c0-1.42-1.14-3.92-4.09-3.92h-44.78c-2.95,0-4.09,2.51-4.09,3.92v17.05c0,6.26,0,14.54,0,20.09-.15,4.01.54,6.31-1.09,8.72-.9,1.16-2.41,1.68-3.92,1.69-1.51,0-3.02-.53-3.92-1.69-1.63-2.41-.95-4.7-1.09-8.72,0-5.55,0-13.83,0-20.09v-17.05c0-1.42-1.14-3.92-4.09-3.92h-44.78c-2.95,0-4.09,2.51-4.09,3.92.01,12.12-.03,33.53,0,45.49.39,19.09,8.35,36.14,26.8,43.42,8.71,3.52,19.94,5.27,31.19,5.24,11.25.02,22.48-1.72,31.19-5.24,18.44-7.28,26.41-24.33,26.8-43.42.02-11.97-.02-33.37,0-45.49ZM119.01,66.71c-5.43-1.6-12.07-2.11-15.82-2.02,0,0-.09,0-.09,0-3.4.01-7.23-.03-10.26,1.77-3.06,1.81-3.59,5.8-1.75,8.74,1.37,2.2,4.32,6.8.97,8.63-8.84,4.83-17.14-.57-20.33-11.15-2.16-6.7-.72-16.09,4.93-20.79,4.83-4.02,11.81-4.56,17.83-4.47,6.24.09,12.44.99,18.58,2.05,3.25.56,5.95-1.51,5.34-4.75l-2.82-16.23c-.47-2.49-2.14-4.52-4.57-5.46C76.79,9.9,24.15,9.33,7.74,47.7c-3.95,10.03-4.23,21.4-1.13,31.7,8.31,28.92,39.79,37.43,66.98,36.93,14.27-.27,28.74-2.45,35.84-3.73,2.75-.49,4.98-2.48,5.79-5.15,2.38-7.8,6.29-23.88,8.67-31.69,1.11-3.81-1.07-7.92-4.88-9.05ZM355.69,22.08c0-1.8-1.66-3.75-3.17-3.75h-.03c-10.68-.04-90.63-.04-101.31,0h-.03c-1.51,0-3.17,1.95-3.17,3.75.02,3.48-.02,42.98,0,46.33.04.67.39,1.8.96,2.36,1.41,1.57,3.22,1.26,5.1,1.28,4.5.03,11.03-.06,15.11.03.52.05,1.23.78,1.33,1.19.07.2.04.37.05.57,0,1.19,0,4.75,0,9.28-.03,7.64.03,26.15,0,28.5-.03,1.83,1.59,3.37,3.28,3.46.81,0,17.77.04,30.37.04h0c.12,0,.24,0,.36,0s.24,0,.36,0h0c12.6,0,24.14-.04,24.95-.04,1.69-.09,3.31-1.63,3.28-3.46-.03-2.35.03-20.86,0-28.5,0-4.53,0-8.09,0-9.28.01-.21-.02-.38.05-.57.11-.4.81-1.13,1.33-1.19,4.07-.09,10.61,0,15.11-.03,1.89-.02,3.69.29,5.1-1.28.57-.56.92-1.69.96-2.36.02-3.35-.01-42.85,0-46.33ZM613.64,30.09c-.08-.7-.38-1.2-.92-1.52.77-.39,1.24-1.15,1.24-2.11,0-1.83-1.33-2.87-3.65-2.87h-4.4c-.15,0-.28.12-.28.28v8.16c0,.15.12.28.28.28h2.57c.15,0,.28-.12.28-.28v-2.23h.74c.73,0,.93.09,1.01.85.06.91.23,1.26.5,1.56.05.06.13.09.2.09h2.63c.11,0,.21-.07.26-.17.04-.1.02-.22-.06-.3-.24-.24-.3-.47-.4-1.74ZM609.56,27.39h-.8v-1.3h.8c1.17,0,1.17.42,1.17.65s0,.65-1.17.65ZM609.48,19.15c-5.67,0-9.63,3.79-9.63,9.22s3.96,9.22,9.63,9.22,9.63-3.79,9.63-9.22-3.96-9.22-9.63-9.22ZM609.48,35.44c-4.31,0-7.1-2.77-7.1-7.06s2.79-7.06,7.1-7.06,7.1,2.77,7.1,7.06-2.79,7.06-7.1,7.06ZM443,57.25c-5.91-2.12-10.82-3.13-13.67-5.45-3.77-3.61-1.37-8.11,3.63-8.29,4.71-.17,7.99.96,13.99,3.27,5.42,2.09,5.52,2.29,13.53,6.22,1.65.91,2.72-.46,2.72-1.45-.07-9.49.03-5.29-.37-16.84,0,0,.47-9.93-10.8-13.21-10.16-2.96-19.22-4.06-22.2-4.52-20.17-3.15-52.09-2.76-63.97,10.09-8.74,8.38-8.64,26.14.55,34.71,6.68,6.86,16.26,10.76,26.04,15.62,2.91,1.45,6.1,3.09,5.39,6.87-3.12,10.67-31.83-9.2-33.84-10.47-.89-.5-2.17.21-2.17,1.18,0,2.48,0,21.85,0,24.56,0,7.21,6.48,10.79,12.35,12.33,13.14,2.91,25.07,4.3,38.06,4.22,23.19.04,52.55-5.33,55.2-28,2.63-17.84-16.65-28.05-24.45-30.85ZM595.6,18.34l-52.76.02c-1.82,0-3.29,1.47-3.29,3.28,0,12.09.05,38.91-.08,42.35,0,3.45-.8,4.6-2.24,5.36-1.92,1.06-4.78.85-6.31-.58-1.19-1.06-1.6-3.04-1.6-4.51-.03-3.67-.02-27.82-.01-42.26,0-2.04-1.64-3.69-3.68-3.7-10.18-.05-37.15.05-50.16.05-1.89,0-3.1,2.07-2.17,4.13,4.71,12.5,14.91,38.15,16.09,41.37,3.71,8.2-1.93,16.69-11.68,11.87-1.98-1.07-4.29-2.24-5.93-.04-.53.82-.68,1.37-.7,2.04-.02,3.37.01,27.49,0,30.24.12,2.66,2.18,3.45,4.71,3.92,42.92,9.37,84.42,4.55,96.44-22.8,6.37-16.79,24.5-64.51,25.5-66.88,1.01-2.62-.61-3.87-2.14-3.87Z"/>
</svg>